<?xml version="1.0" encoding="UTF-8"?>
<!-- Created with Inkscape (http://www.inkscape.org/) -->
<svg width="241.28mm" height="212.84mm" version="1.1" viewBox="0 0 241.28 212.84" xmlns="http://www.w3.org/2000/svg" xmlns:cc="http://creativecommons.org/ns#" xmlns:dc="http://purl.org/dc/elements/1.1/" xmlns:rdf="http://www.w3.org/1999/02/22-rdf-syntax-ns#">
 <metadata>
  <rdf:RDF>
   <cc:Work rdf:about="">
    <dc:format>image/svg+xml</dc:format>
    <dc:type rdf:resource="http://purl.org/dc/dcmitype/StillImage"/>
    <dc:title/>
   </cc:Work>
  </rdf:RDF>
 </metadata>
 <g transform="translate(22.276 -70.342)">
  <path d="m103.87 282.82c-46.742-3.8499-85.697-38.409-95.29-84.537-0.45305-2.1785-0.9247-4.1244-1.0481-4.324-0.1234-0.19966 0.03974-0.46436 0.36252-0.58823 0.4385-0.16827 4.4132 3.6003 15.721 14.906l15.134 15.131 14.385-14.382c13.612-13.609 16.013-15.712 15.039-13.172-1.0093 2.6302 10.328 16.648 17.139 21.191 39.548 26.379 89.781-13.616 72.645-57.839-9.4234-24.318-39.183-37.697-62.146-27.938-0.7276 0.30922-1.3229 0.49972-1.3229 0.42334 0-0.28342-6.9646 3.4878-9.3486 5.0621-3.6441 2.4064-10.215 9.1002-12.863 13.104l-2.2168 3.3514 14.888 0.092c8.8971 0.055 14.842 0.22299 14.772 0.41745-0.064 0.17897-13.861 13.976-30.661 30.661l-30.544 30.336-30.398-30.415c-16.719-16.728-30.398-30.526-30.398-30.661s7.0043-0.28794 15.565-0.33846l15.565-0.0919 1.1604-4.2333c3.7776-13.781 10.891-27.729 19.656-38.541 1.1404-1.4067 1.9752-2.5576 1.855-2.5576-0.43688 0 6.4495-7.1386 10.063-10.432 21.021-19.156 54.482-29.97 81.832-26.446 8.833 1.1381 13.634 2.1254 20.108 4.1355 68.32 21.211 96.966 100.87 57.696 160.45-21.158 32.099-58.887 50.406-97.351 47.238zm-78.481-163.57c0.43881-0.55952 0.42633-0.572-0.1332-0.13319-0.58764 0.46086-0.77452 0.75056-0.48417 0.75056 0.07325 0 0.35107-0.27782 0.61736-0.61737zm4.2333-5.9972c0.43881-0.55953 0.42633-0.572-0.13319-0.13319-0.58764 0.46086-0.77452 0.75055-0.48417 0.75055 0.07325 0 0.35107-0.27781 0.61736-0.61736z" fill="#f4e3d7"/>
 </g>
</svg>
